<svg xmlns="http://www.w3.org/2000/svg" width="128.087" height="80.946" viewBox="0 0 128.087 80.946"><defs><style>.a{fill:#fd5545;}.b{fill:#9f9f9f;}</style></defs><g transform="translate(-155.509 -482.835)"><path class="a" d="M180.43,575.983h-7.468L167.4,602.206h-9.986l5.557-26.223h-7.468l.782-3.734h24.921Z" transform="translate(0 -52.536)"/><path class="a" d="M222.538,610.741H203.826a3.779,3.779,0,0,1-3.148-1.281,3.871,3.871,0,0,1-.543-3.408l1.867-8.9a4.623,4.623,0,0,1,1.606-2.692,4.429,4.429,0,0,1,2.909-1.042h10.507l.738-3.343h-9.638l.695-3.3h15.109a2.9,2.9,0,0,1,2.453,1.042,3.157,3.157,0,0,1,.456,2.692Zm-11.2-13.98-2.3,10.68h4.993l2.3-10.68Z" transform="translate(-26.131 -61.072)"/><path class="a" d="M344.486,590.509a4.583,4.583,0,0,1,1.628-2.692,4.513,4.513,0,0,1,2.931-1.042h15.977a2.9,2.9,0,0,1,2.453,1.042,3.157,3.157,0,0,1,.456,2.692l-2.865,13.633h-14.2l-.738,3.3h14.2l-.695,3.3H344.877a3.778,3.778,0,0,1-3.147-1.281,3.872,3.872,0,0,1-.543-3.408Zm9.378-.434-2.3,10.68h4.993l2.3-10.68Z" transform="translate(-109.008 -61.072)"/><path class="a" d="M432.1,590.076h-8.987l-4.428,20.666h-9.248l4.3-20.232a4.583,4.583,0,0,1,1.628-2.692,4.513,4.513,0,0,1,2.931-1.042h14.5Z" transform="translate(-149.199 -61.072)"/><g transform="translate(156.025 555.112)"><path class="b" d="M163.971,659.16H161.81l-1.608,7.588h-2.89l1.608-7.588H156.76l.226-1.08H164.2Z" transform="translate(-156.76 -658.08)"/><path class="b" d="M178.814,666.749a1.093,1.093,0,0,1-.911-.371,1.121,1.121,0,0,1-.157-.986L179,659.436a1.723,1.723,0,0,1,.591-.986,1.616,1.616,0,0,1,1.055-.37h4.787l-.226,1.08h-3.254l-.578,2.714H183.9l-.226,1.081h-2.525l-.578,2.713h3.254l-.226,1.081Z" transform="translate(-169.065 -658.08)"/><path class="b" d="M200.441,666.749a1.093,1.093,0,0,1-.911-.371,1.12,1.12,0,0,1-.157-.986l1.256-5.955a1.722,1.722,0,0,1,.591-.986,1.615,1.615,0,0,1,1.055-.37h4.787l-.226,1.08h-3.254l-1.458,6.508h3.329l-.226,1.081Z" transform="translate(-181.772 -658.08)"/><path class="b" d="M227.951,666.749h-2.89l.578-2.714H223.83l-.578,2.714h-2.89l1.834-8.669h2.89l-1.03,4.874h1.809l1.03-4.874h2.89Z" transform="translate(-194.131 -658.08)"/><path class="b" d="M253.715,666.749h-2.89l-.829-5.44-1.156,5.44h-2.89l1.834-8.669h2.89l.829,5.452,1.156-5.452h2.89Z" transform="translate(-209.165 -658.08)"/><path class="b" d="M280.19,665.392a1.716,1.716,0,0,1-.59.986,1.614,1.614,0,0,1-1.055.371H273.67a1.093,1.093,0,0,1-.911-.371,1.121,1.121,0,0,1-.157-.986l1.256-5.955a1.72,1.72,0,0,1,.59-.986,1.616,1.616,0,0,1,1.055-.37h4.875a1.1,1.1,0,0,1,.911.37,1.121,1.121,0,0,1,.157.986Zm-3.38-6.231-1.382,6.508h1.809l1.382-6.508Z" transform="translate(-224.799 -658.08)"/><path class="b" d="M303.695,666.749h-6.144l1.834-8.669h2.89l-1.608,7.588h3.254Z" transform="translate(-239.484 -658.08)"/><path class="b" d="M327.466,665.392a1.72,1.72,0,0,1-.59.986,1.615,1.615,0,0,1-1.056.371h-4.875a1.093,1.093,0,0,1-.911-.371,1.12,1.12,0,0,1-.157-.986l1.256-5.955a1.722,1.722,0,0,1,.591-.986,1.615,1.615,0,0,1,1.055-.37h4.875a1.094,1.094,0,0,1,.911.37,1.121,1.121,0,0,1,.157.986Zm-3.38-6.231-1.382,6.508h1.809l1.382-6.508Z" transform="translate(-252.576 -658.08)"/><path class="b" d="M346.533,666.749a1.093,1.093,0,0,1-.911-.371,1.121,1.121,0,0,1-.157-.986l1.257-5.955a1.718,1.718,0,0,1,.591-.986,1.614,1.614,0,0,1,1.055-.37h4.875a1,1,0,0,1,1.068,1.344l-.239,1.168h-2.889l.3-1.432h-1.809l-1.382,6.508H350.1l.389-1.809H349.4l.226-1.08h3.982l-.553,2.613a1.718,1.718,0,0,1-.59.986,1.614,1.614,0,0,1-1.055.371Z" transform="translate(-267.61 -658.08)"/><path class="b" d="M373.273,666.749h-2.889l1.834-8.669h2.89Z" transform="translate(-282.278 -658.08)"/><path class="b" d="M386.284,666.749a1.092,1.092,0,0,1-.911-.371,1.12,1.12,0,0,1-.157-.986l1.256-5.955a1.723,1.723,0,0,1,.591-.986,1.615,1.615,0,0,1,1.055-.37h4.787l-.226,1.08h-3.254l-.578,2.714h2.525l-.226,1.081h-2.525l-.578,2.713H391.3l-.226,1.081Z" transform="translate(-290.967 -658.08)"/><path class="b" d="M413.825,661.874a1.094,1.094,0,0,1,.911.371,1.119,1.119,0,0,1,.157.986l-.452,2.161a1.716,1.716,0,0,1-.59.986,1.613,1.613,0,0,1-1.055.371h-4.875a1.075,1.075,0,0,1-.9-.371,1.162,1.162,0,0,1-.163-.986l.239-1.168h2.89l-.3,1.444h1.809l.577-2.713h-3.342a1.094,1.094,0,0,1-.911-.371,1.121,1.121,0,0,1-.157-.986l.452-2.161a1.724,1.724,0,0,1,.59-.986,1.617,1.617,0,0,1,1.056-.37h4.875a1,1,0,0,1,1.068,1.344l-.239,1.168h-2.89l.3-1.432h-1.809l-.577,2.714Z" transform="translate(-303.683 -658.08)"/></g><path class="a" d="M288.246,505.853l-.606-.124-5.874-1.206-.606-.124L268.3,562.459h9.239Z" transform="translate(-66.274 -12.67)"/><path class="a" d="M328.051,484.315l-6.817-1.4-.394-.081c-3.325,11.345-5.9,21.49-8.668,32.337-2.891,11.848-5.141,21.48-7.323,32.3-.155.771-.3,1.543-.457,2.315h8.618q.628-3.4,1.291-6.8c2.109-10.761,4.469-21.471,7.162-32.1,2.256-8.9,4.465-17.569,6.98-26.488Z" transform="translate(-87.479 0)"/></g></svg>